# xmcd CD database file
#
# Track frame offsets:
#	150
#	21287
#	44612
#	79862
#	112862
#	146762
#	174212
#	193412
#
# Disc length: 2803 seconds
#
# Revision: 0
# Processed by: cddbd v1.5.1PL0 Copyright (c) Steve Scherf et al.
# Submitted via: CDex 1.51
#
DISCID=6a0af108
DTITLE=Eric Watson Trio - Punk Circus
DYEAR=1994
DGENRE=Jazz
TTITLE0=White Out
TTITLE1=Smaks
TTITLE2=Exits
TTITLE3=Punk Circus
TTITLE4=Shadow of the Past
TTITLE5=Black Eyed Max
TTITLE6=Fall
TTITLE7=Last Request
EXTD=YEAR: 1994
EXTT0=
EXTT1=
EXTT2=
EXTT3=
EXTT4=
EXTT5=
EXTT6=
EXTT7=
PLAYORDER=
